<?xml version="1.0" encoding="UTF-8" standalone="no"?><!DOCTYPE svg PUBLIC "-//W3C//DTD SVG 1.1//EN" "http://www.w3.org/Graphics/SVG/1.1/DTD/svg11.dtd"><svg width="100%" height="100%" viewBox="0 0 401 485" version="1.1" xmlns="http://www.w3.org/2000/svg" xmlns:xlink="http://www.w3.org/1999/xlink" xml:space="preserve" xmlns:serif="http://www.serif.com/" style="fill-rule:evenodd;clip-rule:evenodd;stroke-linejoin:round;stroke-miterlimit:2;"><path d="M76.378,477.57c-6.869,-3.386 -15.142,-11.283 -18.382,-17.549c-5.943,-11.493 -57.939,-382.196 -57.996,-413.48c-0.029,-17.619 9.507,-32.413 26.598,-41.252c15.597,-8.065 30.911,-6.91 46.235,3.489c33.912,23.014 319.425,263.46 323.525,272.459c9.999,21.945 0.941,52.505 -18.674,63.002c-4.7,2.515 -22.909,6.029 -40.464,7.809c-36.89,3.739 -85.742,19.51 -116.939,37.751c-11.94,6.982 -38.371,29.375 -58.736,49.762c-46.115,46.165 -57.923,51.435 -85.167,38.009Z"/><path d="M122.701,428.711c53.893,-62.424 132.067,-103.319 211.657,-110.724c26.801,-2.494 36.12,-8.477 31.59,-20.282c-1.868,-4.868 -297.913,-252.986 -311.848,-261.362c-9.67,-5.812 -20.082,0.895 -20.082,12.938c-0,18.858 49.261,382.95 53.045,392.06c5.68,13.675 16.123,9.974 35.638,-12.63Z" style="fill:#006b91;"/><path d="M99.12,240.849c-11.006,-71.26 -19.942,-130.858 -19.859,-132.439c0.086,-1.582 47.709,36.72 105.836,85.114c78.649,65.481 104.052,88.596 99.301,90.356c-3.512,1.301 -19.153,6.169 -34.757,10.818c-37.765,11.251 -73.076,30.067 -103.465,55.133c-13.723,11.32 -25.422,20.581 -25.998,20.581c-0.577,-0 -10.053,-58.304 -21.058,-129.563Z"/></svg>