<?xml version="1.0" encoding="UTF-8" standalone="no"?><!DOCTYPE svg PUBLIC "-//W3C//DTD SVG 1.1//EN" "http://www.w3.org/Graphics/SVG/1.1/DTD/svg11.dtd"><svg width="100%" height="100%" viewBox="0 0 443 491" version="1.1" xmlns="http://www.w3.org/2000/svg" xmlns:xlink="http://www.w3.org/1999/xlink" xml:space="preserve" xmlns:serif="http://www.serif.com/" style="fill-rule:evenodd;clip-rule:evenodd;stroke-linejoin:round;stroke-miterlimit:2;"><path id="path263" d="M32.249,478.934c-6.279,-3.099 -14.698,-11.058 -18.708,-17.687c-6.785,-11.216 -7.291,-19.63 -7.291,-121.221c0,-104.522 0.329,-109.617 7.749,-119.732c10.399,-14.175 30.014,-23.646 48.989,-23.653l15.579,-0.006l1.258,-42.093c1.08,-36.175 2.657,-45.079 11.211,-63.328c36.668,-78.218 129.608,-108.218 202.65,-65.412c35.028,20.527 65.486,66.466 69.116,104.244l1.724,17.948l-71.086,-0l-2.258,-14.031c-4.571,-28.406 -39.406,-56.788 -69.932,-56.978c-18.079,-0.113 -43.839,13.799 -57.635,31.124c-10.742,13.489 -11.521,16.636 -12.728,51.447l-1.286,37.079l122.889,0.006c135.232,0.006 139.415,0.639 156.297,23.654c7.419,10.114 7.749,15.209 7.749,119.731c0,101.733 -0.499,109.992 -7.319,121.268c-14.291,23.627 -12.753,23.454 -208.389,23.36c-150.116,-0.07 -178.904,-0.944 -188.578,-5.719l-0.001,-0.001Zm211.594,-90.824c-0,-22.324 1.163,-26.633 9.245,-34.225c21.226,-19.94 21.349,-52.042 0.27,-70.549c-22.197,-19.489 -44.626,-18.775 -66.529,2.12c-18.45,17.601 -17.106,49.664 2.868,68.429c8.082,7.592 9.246,11.901 9.246,34.225l-0,25.539l44.899,-0l0.001,-25.539Z" style="fill:#006b91;fill-rule:nonzero;stroke:#000;stroke-width:12.5px;"/></svg>