<?xml version="1.0" encoding="UTF-8" standalone="no"?><!DOCTYPE svg PUBLIC "-//W3C//DTD SVG 1.1//EN" "http://www.w3.org/Graphics/SVG/1.1/DTD/svg11.dtd"><svg width="100%" height="100%" viewBox="0 0 443 491" version="1.1" xmlns="http://www.w3.org/2000/svg" xmlns:xlink="http://www.w3.org/1999/xlink" xml:space="preserve" xmlns:serif="http://www.serif.com/" style="fill-rule:evenodd;clip-rule:evenodd;stroke-linejoin:round;stroke-miterlimit:2;"><path id="path235" d="M43.116,483.387c-17.169,-4.16 -30.922,-17.604 -35.474,-34.676c-1.912,-7.169 -1.828,-208.334 0.089,-215.537c4.459,-16.752 17.753,-29.83 34.852,-34.284c3.645,-0.949 10.057,-1.393 20.123,-1.393l14.773,0l0.021,-23.156c0.025,-26.939 1.057,-42.435 3.656,-54.881c5.635,-26.983 18.97,-51.419 38.851,-71.194c17.056,-16.965 34.753,-27.96 56.305,-34.983c17.217,-5.61 26.284,-7.019 45.252,-7.033c13.229,-0.01 18.391,0.39 26.878,2.08c51.032,10.163 92.065,45.79 108.987,94.627c6.259,18.065 8.148,34.633 8.193,71.851l0.028,22.689l14.774,0c16.189,0 22.268,1.058 31.071,5.41c6.732,3.327 16.742,13.34 20.006,20.01c5.443,11.126 5.233,6.388 5.245,118.262c0.011,92.027 -0.149,103.522 -1.497,108.063c-3.886,13.09 -12.27,23.703 -23.398,29.619c-11.675,6.207 0.101,5.85 -190.754,5.777c-136.313,-0.051 -174.128,-0.317 -177.98,-1.251l-0.001,0Zm202.774,-70.698l0,-53.99l5.538,-4.35c10.423,-8.189 16.781,-20.606 17.612,-34.397c0.801,-13.277 -3.207,-25.132 -11.687,-34.573c-15.698,-17.477 -42.107,-21.137 -61.586,-8.537c-10.468,6.772 -18.153,17.757 -20.997,30.011c-1.616,6.965 -0.727,19.763 1.842,26.529c3.029,7.976 8.851,16.067 15.088,20.967l5.538,4.35l0,53.99l48.652,0Zm47.484,-245.365c-0.358,-27.679 -0.56,-30.741 -2.439,-37.024c-2.754,-9.202 -7.474,-18.344 -13.079,-25.328c-14.257,-17.764 -33.814,-27.221 -56.292,-27.221c-32.369,0 -59.885,20.844 -69.37,52.549c-1.88,6.283 -2.082,9.345 -2.439,37.024l-0.39,30.173l144.399,0l-0.39,-30.173Z" style="fill:#006b91;fill-rule:nonzero;stroke:#000;stroke-width:12.5px;"/></svg>