<?xml version="1.0" encoding="UTF-8" standalone="no"?>
<!DOCTYPE svg PUBLIC "-//W3C//DTD SVG 1.1//EN" "http://www.w3.org/Graphics/SVG/1.1/DTD/svg11.dtd">
<svg width="100%" height="100%" viewBox="0 0 100 100" version="1.1" xmlns="http://www.w3.org/2000/svg" xmlns:xlink="http://www.w3.org/1999/xlink" xml:space="preserve" xmlns:serif="http://www.serif.com/" style="fill-rule:evenodd;clip-rule:evenodd;stroke-linejoin:round;stroke-miterlimit:2;">
    <g id="python_1" transform="matrix(0.688829,0,0,0.688829,-15.9064,-58.0963)">
        <path d="M95.679,224.487C79.955,224.487 63.4,220.792 63.4,209.237L63.4,170.685C63.4,165.107 69.446,158.371 75.374,158.371L115.39,158.371C131.769,158.371 131.87,158.339 131.87,143.566C131.87,141.724 131.97,123.855 131.97,123.855L150.493,123.855C156.297,123.855 158.793,133.277 160.995,143.734C163.619,156.191 163.097,165.445 159.186,175.858C156.347,183.417 152.959,189.332 146.876,189.332C139.641,189.332 95.679,189.494 95.679,189.494L95.679,193.44L128.006,193.44L128.006,211.175C128.006,222.963 118.186,224.487 95.679,224.487ZM113.772,201.378C110.295,201.378 107.472,204.201 107.472,207.678C107.472,211.156 110.295,213.979 113.772,213.979C117.25,213.979 120.073,211.156 120.073,207.678C120.073,204.201 117.25,201.378 113.772,201.378Z" style="fill:rgb(0,107,145);stroke:rgb(0,58,69);stroke-width:1.45px;"/>
    </g>
    <g id="python_2" transform="matrix(-0.688829,-8.43572e-17,8.43572e-17,-0.688829,115.695,157.55)">
        <path d="M95.679,224.487C79.955,224.487 63.4,220.792 63.4,209.237L63.4,170.685C63.4,165.107 69.446,158.371 75.374,158.371L115.39,158.371C131.769,158.371 131.87,158.339 131.87,143.566C131.87,141.724 131.97,123.855 131.97,123.855L150.493,123.855C156.297,123.855 158.793,133.277 160.995,143.734C163.619,156.191 163.097,165.445 159.186,175.858C156.347,183.417 152.959,189.332 146.876,189.332C139.641,189.332 95.679,189.494 95.679,189.494L95.679,193.44L128.006,193.44L128.006,211.175C128.006,222.963 118.186,224.487 95.679,224.487ZM113.772,201.378C110.295,201.378 107.472,204.201 107.472,207.678C107.472,211.156 110.295,213.979 113.772,213.979C117.25,213.979 120.073,211.156 120.073,207.678C120.073,204.201 117.25,201.378 113.772,201.378Z" style="fill:rgb(0,107,145);stroke:rgb(0,58,69);stroke-width:1.45px;"/>
    </g>
</svg>
