<?xml version="1.0" encoding="UTF-8" standalone="no"?><!DOCTYPE svg PUBLIC "-//W3C//DTD SVG 1.1//EN" "http://www.w3.org/Graphics/SVG/1.1/DTD/svg11.dtd"><svg width="100%" height="100%" viewBox="0 0 500 500" version="1.1" xmlns="http://www.w3.org/2000/svg" xmlns:xlink="http://www.w3.org/1999/xlink" xml:space="preserve" xmlns:serif="http://www.serif.com/" style="fill-rule:evenodd;clip-rule:evenodd;stroke-linejoin:round;stroke-miterlimit:2;"><path d="M207.207,479.119c-0,-0.457 -3.372,-4.842 -7.493,-9.743c-14.023,-16.678 -23.273,-42.283 -23.273,-64.422c0,-8.227 3.779,-15.249 8.204,-15.249c5.318,-0 8.207,7.052 8.253,20.144c0.082,22.926 12.29,47.118 31.414,62.247l9.926,7.854l69.427,-0l4.088,-6.666c6.952,-11.337 12.615,-28.475 15.328,-46.389c3.024,-19.971 6.996,-24.782 14.371,-17.407c2.654,2.654 3.093,5.607 2.056,13.844c-2.005,15.931 -6.821,33.898 -12.29,45.85l-4.927,10.768l8.603,-0.023c11.303,-0.031 27.857,-4.542 42.177,-11.491c15.189,-7.371 38.811,-30.993 46.182,-46.182c14.431,-29.738 15.41,-62.454 2.764,-92.324c-1.741,-4.112 -23.789,-38.938 -48.995,-77.393c-43.918,-67 -46.187,-70.04 -54.385,-72.848c-4.705,-1.611 -8.948,-2.537 -9.428,-2.057c-1.292,1.292 2.248,22.747 5.889,35.686c1.746,6.204 6.335,17.081 10.198,24.17c8.159,14.975 7.863,13.667 3.983,17.547c-10.781,10.78 -28.324,-22.404 -34.51,-65.279l-2.66,-18.436l-9.972,-3.702c-7.995,-2.968 -10.305,-3.176 -11.654,-1.049c-3.802,5.993 -10.117,28.359 -11.685,41.386c-2.02,16.777 -6.494,21.453 -13.666,14.281c-2.763,-2.763 -3.127,-5.696 -1.972,-15.895c1.206,-10.647 7.365,-33.344 12.048,-44.4c1.035,-2.443 -1.138,-3.972 -9.388,-6.611l-10.735,-3.433l-52.248,32.249c-58.373,36.029 -76.278,50.739 -91.419,75.107c-26.611,42.828 -28.843,96.838 -5.886,142.45c13.78,27.38 44.667,55.833 73.21,67.441c17.347,7.055 48.465,13.459 48.465,9.975Z" style="fill:#006b91;"/><path d="M359.788,111.873l19.894,-21.454l-8.468,-6.134c-9.069,-6.57 -22.355,-9.618 -33.241,-7.626c-8.124,1.487 -9.141,0.825 -18.066,-11.761c-13.432,-18.942 -38.93,-34.938 -65.62,-41.164c-7.184,-1.676 -13.367,-2.742 -13.74,-2.37c-0.373,0.373 3.112,15.822 7.745,34.332l8.422,33.653l10.659,5.581c5.862,3.069 11.204,5.581 11.869,5.581c0.666,-0 0,-6.956 -1.478,-15.457c-1.478,-8.501 -2.197,-16.737 -1.597,-18.301c2.384,-6.21 12.03,-5.783 13.938,0.618c0.557,1.87 2.499,12.168 4.315,22.885c1.816,10.716 4.139,20.336 5.163,21.378c2.102,2.138 37.198,21.576 39.087,21.647c0.673,0.023 10.175,-9.608 21.118,-21.408Z" style="fill:#006b91;"/><path d="M329.57,156.28c1.358,-4.69 1.84,-8.886 1.071,-9.325c-32.856,-18.755 -74.977,-40.306 -76.188,-38.982c-2.321,2.538 -10.935,29.533 -9.79,30.678c1.768,1.767 78.4,27.164 80.432,26.656c1.104,-0.276 3.117,-4.338 4.475,-9.027Z" style="fill:#006b91;"/><path id="path230" d="M172.888,490.413c-47.035,-10.416 -91.775,-47.751 -110.014,-102.759c-13.561,-40.9 -11.261,-82.015 6.698,-119.764c17.868,-37.556 36.009,-54.182 106.543,-97.644l51.593,-31.791l7.311,-21.924l7.311,-21.923l-10.746,-42.446c-10.479,-41.388 -10.648,-42.518 -6.794,-45.356c7.243,-5.333 39.376,1.204 64.458,13.114c11.9,5.65 19.177,11.132 32.144,24.214l16.762,16.909l12.978,0.876c7.138,0.481 16.639,2.639 21.114,4.795c11.128,5.362 23.655,18.253 23.655,24.341c-0,3.435 -7.304,12.695 -24.408,30.942c-23.158,24.708 -24.579,26.725 -27.765,39.411l-3.359,13.371l46.546,70.767c55.322,84.111 58.966,92.009 58.922,127.751c-0.023,17.974 -0.937,24.191 -5.535,37.59c-13.145,38.303 -58.75,84.702 -109.295,84.702c-23.587,0 -132.792,0.432 -158.119,-5.176Zm34.319,-11.295c-0,-0.457 -3.372,-4.841 -7.493,-9.742c-14.023,-16.678 -23.273,-42.283 -23.273,-64.422c0,-8.227 3.779,-15.249 8.204,-15.249c5.318,-0 8.207,7.052 8.253,20.144c0.082,22.926 12.29,47.118 31.414,62.247l9.926,7.854l69.427,-0l4.088,-6.666c6.952,-11.337 12.615,-28.475 15.328,-46.389c3.024,-19.971 6.996,-24.782 14.371,-17.407c2.654,2.654 3.093,5.607 2.056,13.844c-2.005,15.931 -6.821,33.898 -12.29,45.85l-4.927,10.768l8.603,-0.023c11.303,-0.031 27.857,-4.542 42.177,-11.491c15.189,-7.371 38.811,-30.993 46.182,-46.182c14.431,-29.738 15.41,-62.454 2.764,-92.324c-1.741,-4.112 -23.789,-38.938 -48.995,-77.393c-43.918,-67 -46.187,-70.04 -54.385,-72.848c-4.705,-1.611 -8.948,-2.537 -9.428,-2.057c-1.292,1.292 2.248,22.747 5.889,35.686c1.746,6.204 6.335,17.081 10.198,24.17c8.159,14.975 7.863,13.667 3.983,17.547c-10.781,10.78 -28.324,-22.404 -34.51,-65.279l-2.66,-18.436l-9.972,-3.702c-7.995,-2.968 -10.305,-3.176 -11.654,-1.049c-3.802,5.993 -10.117,28.359 -11.685,41.386c-2.02,16.777 -6.494,21.453 -13.666,14.281c-2.763,-2.763 -3.127,-5.696 -1.972,-15.895c1.206,-10.647 7.365,-33.344 12.048,-44.4c1.035,-2.443 -1.138,-3.972 -9.388,-6.611l-10.735,-3.433l-52.248,32.249c-58.373,36.029 -76.278,50.739 -91.419,75.107c-26.611,42.828 -28.843,96.838 -5.886,142.45c13.78,27.38 44.667,55.833 73.21,67.441c17.347,7.055 48.465,13.46 48.465,9.976l-0,-0.002Zm122.363,-322.838c1.358,-4.69 1.84,-8.886 1.071,-9.325c-32.856,-18.755 -74.977,-40.306 -76.188,-38.982c-2.321,2.538 -10.935,29.533 -9.79,30.678c1.768,1.767 78.4,27.164 80.432,26.656c1.104,-0.276 3.117,-4.338 4.475,-9.027Zm30.218,-44.407l19.894,-21.454l-8.468,-6.134c-9.069,-6.57 -22.355,-9.618 -33.241,-7.626c-8.124,1.487 -9.141,0.825 -18.066,-11.761c-13.432,-18.942 -38.93,-34.938 -65.62,-41.164c-7.184,-1.676 -13.367,-2.742 -13.74,-2.37c-0.373,0.373 3.112,15.822 7.745,34.332l8.422,33.653l10.659,5.581c5.862,3.069 11.204,5.581 11.869,5.581c0.666,-0 0,-6.956 -1.478,-15.457c-1.478,-8.501 -2.197,-16.737 -1.597,-18.301c2.384,-6.21 12.03,-5.783 13.938,0.618c0.557,1.87 2.499,12.168 4.315,22.885c1.816,10.716 4.139,20.336 5.163,21.378c2.102,2.138 37.198,21.576 39.087,21.647c0.673,0.023 10.175,-9.608 21.118,-21.408Z" style="fill-rule:nonzero;"/></svg>